<svg width="23" height="20" viewBox="0 0 23 20" fill="none" xmlns="http://www.w3.org/2000/svg">
<path fill-rule="evenodd" clip-rule="evenodd" d="M2.12097 2.0954C3.34171 0.889532 4.95853 0.15407 6.6799 0.0216196C8.40127 -0.110831 10.1139 0.368444 11.5091 1.37303C12.9831 0.319789 14.8045 -0.147136 16.6111 0.0650619C18.4178 0.27726 20.0774 1.15305 21.2602 2.51834C22.443 3.88364 23.0623 5.63847 22.995 7.43405C22.9278 9.22962 22.1788 10.9345 20.8971 12.2097L14.0691 18.953C13.3901 19.6234 12.4692 20 11.5091 20C10.5489 20 9.62803 19.6234 8.94899 18.953L2.12097 12.2109C0.762931 10.8696 0 9.05052 0 7.15374C0 5.25696 0.762931 3.43667 2.12097 2.0954Z" fill="white"/>
</svg>
